<?xml version="1.0" encoding="utf-8"?>
<!-- Generator: Adobe Illustrator 25.4.1, SVG Export Plug-In . SVG Version: 6.00 Build 0)  -->
<svg version="1.1" id="Capa_1" xmlns="http://www.w3.org/2000/svg" xmlns:xlink="http://www.w3.org/1999/xlink" x="0px" y="0px"
	 viewBox="0 0 853 98" style="enable-background:new 0 0 853 98;" xml:space="preserve">
<style type="text/css">
	.st0{fill:#0060FF;}
	.st1{fill:#003B52;}
</style>
<g>
	<g>
		<g>
			<path class="st0" d="M24.1,49.4c0-9.2,7.3-15.9,17.2-15.9s17.2,6.7,17.2,15.9s-7.3,15.9-17.2,15.9S24.1,58.6,24.1,49.4z
				 M48.1,49.4c0-4.7-3-7.6-6.8-7.6s-6.8,2.9-6.8,7.6s3,7.6,6.8,7.6S48.1,54.1,48.1,49.4z"/>
			<path class="st0" d="M72.5,41.9v5.2h12.7v7.7H72.5v9.7H62.2V34.2H87v7.7H72.5z"/>
			<path class="st0" d="M115.6,56.9v7.7H90.3V34.2H115v7.7h-14.7v3.6h12.9v7.4h-12.9v4H115.6z"/>
			<path class="st0" d="M132.6,57h-2.8v7.7h-10.3V34.2h14.7c8.5,0,13.9,4.4,13.9,11.5c0,4.4-2.1,7.7-5.7,9.6l6.4,9.4h-11L132.6,57z
				 M133.6,42.1h-3.7v7.1h3.7c2.8,0,4.2-1.3,4.2-3.6C137.7,43.4,136.4,42.1,133.6,42.1z"/>
			<path class="st0" d="M158.1,42.1h-8.9v-8h28.1v8h-8.9v22.5h-10.3L158.1,42.1L158.1,42.1z"/>
			<path class="st0" d="M199.2,59.3h-11.6l-2,5.3h-10.4l13.3-30.5h10.1l13.3,30.5h-10.6L199.2,59.3z M196.4,51.9l-3-7.7l-3,7.7
				H196.4z"/>
			<path class="st0" d="M211.6,62.2l3.3-7.5c2.9,1.7,6.7,2.8,10.1,2.8c2.9,0,4-0.6,4-1.7c0-3.8-16.8-0.7-16.8-12.1
				c0-5.7,4.7-10.3,14.2-10.3c4.1,0,8.3,0.9,11.5,2.7l-3.1,7.4c-3-1.5-5.8-2.3-8.5-2.3c-3,0-4,0.9-4,1.9c0,3.7,16.8,0.6,16.8,11.8
				c0,5.6-4.7,10.3-14.2,10.3C219.8,65.3,214.7,64.1,211.6,62.2z"/>
			<path class="st0" d="M280.5,56.9v7.7h-25.3V34.2H280v7.7h-14.7v3.6h12.9v7.4h-12.9v4H280.5z"/>
			<path class="st0" d="M303.5,64.6l-5.3-8.1l-5.1,8.1h-11.7l11-15.4l-10.6-15.1h11.5l5.2,7.7l5-7.7h11.1L304,48.9l11.2,15.8h-11.7
				V64.6z"/>
			<path class="st0" d="M345.1,45.7c0,7-5.4,11.5-13.9,11.5h-4.4v7.5h-10.3V34.2h14.7C339.7,34.2,345.1,38.6,345.1,45.7z
				 M334.7,45.7c0-2.2-1.3-3.6-4.2-3.6h-3.7v7.1h3.7C333.4,49.2,334.7,47.9,334.7,45.7z"/>
			<path class="st0" d="M361.5,57h-2.8v7.7h-10.3V34.2h14.7c8.5,0,13.9,4.4,13.9,11.5c0,4.4-2.1,7.7-5.7,9.6l6.4,9.4h-11L361.5,57z
				 M362.4,42.1h-3.7v7.1h3.7c2.8,0,4.2-1.3,4.2-3.6C366.6,43.4,365.3,42.1,362.4,42.1z"/>
			<path class="st0" d="M406.2,56.9v7.7h-25.3V34.2h24.8v7.7H391v3.6h12.9v7.4H391v4H406.2z"/>
			<path class="st0" d="M408.2,62.2l3.3-7.5c2.9,1.7,6.7,2.8,10.1,2.8c2.9,0,4-0.6,4-1.7c0-3.8-16.8-0.7-16.8-12.1
				c0-5.7,4.7-10.3,14.2-10.3c4.1,0,8.3,0.9,11.5,2.7l-3.1,7.4c-3-1.5-5.8-2.3-8.5-2.3c-3,0-4,0.9-4,1.9c0,3.7,16.8,0.6,16.8,11.8
				c0,5.6-4.7,10.3-14.2,10.3C416.4,65.3,411.3,64.1,408.2,62.2z"/>
			<path class="st0" d="M436.8,62.2l3.3-7.5c2.9,1.7,6.7,2.8,10.1,2.8c2.9,0,4-0.6,4-1.7c0-3.8-16.8-0.7-16.8-12.1
				c0-5.7,4.7-10.3,14.2-10.3c4.1,0,8.3,0.9,11.5,2.7l-3.1,7.4c-3-1.5-5.8-2.3-8.5-2.3c-3,0-4,0.9-4,1.9c0,3.7,16.8,0.6,16.8,11.8
				c0,5.6-4.7,10.3-14.2,10.3C445,65.3,439.9,64.1,436.8,62.2z"/>
		</g>
	</g>
	<g>
		<g>
			<path class="st1" d="M504,39.6h-8.3l-1.6,3.9h-3.2l7.5-16.8h3l7.5,16.8h-3.2L504,39.6z M503,37.1l-3.1-7.3l-3.1,7.3H503z"/>
			<path class="st1" d="M524.9,32.6c0,3.7-2.7,6-7.1,6h-3.7v4.8H511V26.7h6.8C522.2,26.7,524.9,28.9,524.9,32.6z M521.8,32.6
				c0-2.1-1.4-3.3-4.1-3.3h-3.6V36h3.6C520.4,36,521.8,34.7,521.8,32.6z"/>
			<path class="st1" d="M527.9,36.1v-9.5h3.1V36c0,3.5,1.5,4.9,4.2,4.9s4.2-1.5,4.2-4.9v-9.3h3v9.5c0,4.9-2.7,7.5-7.3,7.5
				C530.6,43.7,527.9,41,527.9,36.1z M536.4,22h3.5l-4.1,3.3h-2.6L536.4,22z"/>
			<path class="st1" d="M557.6,43.4l-3.4-4.9c-0.2,0-0.4,0-0.6,0h-3.7v4.9h-3.1V26.7h6.8c4.4,0,7.1,2.3,7.1,6c0,2.5-1.3,4.4-3.5,5.3
				l3.8,5.5L557.6,43.4L557.6,43.4z M553.4,29.3h-3.6V36h3.6c2.7,0,4.1-1.2,4.1-3.4S556.1,29.3,553.4,29.3z"/>
			<path class="st1" d="M574.8,39.6h-8.3l-1.6,3.9h-3.2l7.5-16.8h3l7.5,16.8h-3.2L574.8,39.6z M573.8,37.1l-3.1-7.3l-3.1,7.3H573.8z
				"/>
			<path class="st1" d="M584.3,29.3h-5.5v-2.6h14.1v2.6h-5.5v14.1h-3.1V29.3z"/>
			<path class="st1" d="M607.7,40.8v2.6h-12.4V26.7h12.1v2.6h-9v4.4h8v2.6h-8v4.6L607.7,40.8L607.7,40.8z"/>
			<path class="st1" d="M496.7,55.9c0,1.2-0.9,2.2-2.3,2.2s-2.3-0.9-2.3-2.2c0-1.2,0.9-2.2,2.3-2.2S496.7,54.7,496.7,55.9z
				 M496.7,70.5h-4.4l0.7-10.8h2.9L496.7,70.5z"/>
			<path class="st1" d="M498.5,65.2l1.3-2.9c1.4,1,3.5,1.7,5.5,1.7c2.3,0,3.2-0.8,3.2-1.8c0-3.1-9.7-1-9.7-7.2c0-2.9,2.3-5.2,7-5.2
				c2.1,0,4.2,0.5,5.8,1.5l-1.2,2.9c-1.5-0.9-3.1-1.3-4.6-1.3c-2.3,0-3.2,0.9-3.2,1.9c0,3.1,9.7,1,9.7,7.1c0,2.8-2.3,5.2-7,5.2
				C502.7,67.1,500,66.3,498.5,65.2z"/>
			<path class="st1" d="M513.9,58.4c0-5,3.8-8.7,9.1-8.7c5.2,0,9.1,3.7,9.1,8.7s-3.9,8.7-9.1,8.7C517.8,67.1,513.9,63.4,513.9,58.4z
				 M528.2,58.4c0-3.2-2.2-5.4-5.2-5.4s-5.2,2.2-5.2,5.4s2.2,5.4,5.2,5.4S528.2,61.6,528.2,58.4z"/>
			<path class="st1" d="M535,50.1h3.8v13.6h8.3v3.2H535V50.1z"/>
			<path class="st1" d="M548,58.4c0-5,3.8-8.7,9.1-8.7c5.2,0,9.1,3.7,9.1,8.7s-3.9,8.7-9.1,8.7C551.8,67.1,548,63.4,548,58.4z
				 M562.3,58.4c0-3.2-2.2-5.4-5.2-5.4s-5.2,2.2-5.2,5.4s2.2,5.4,5.2,5.4S562.3,61.6,562.3,58.4z"/>
			<path class="st1" d="M590.2,56.1c0,3.7-2.8,6.1-7.2,6.1h-3.3v4.6h-3.8V50.1h7.2C587.4,50.1,590.2,52.4,590.2,56.1z M586.3,56.1
				c0-1.8-1.2-2.9-3.5-2.9h-3.1V59h3.1C585.1,59,586.3,58,586.3,56.1z"/>
			<path class="st1" d="M592.1,58.4c0-5,3.8-8.7,9.1-8.7c5.2,0,9.1,3.7,9.1,8.7s-3.9,8.7-9.1,8.7C595.9,67.1,592.1,63.4,592.1,58.4z
				 M606.3,58.4c0-3.2-2.2-5.4-5.2-5.4s-5.2,2.2-5.2,5.4s2.2,5.4,5.2,5.4S606.3,61.6,606.3,58.4z"/>
			<path class="st1" d="M623.7,66.8l-3.2-4.7h-0.2H617v4.7h-3.8V50.1h7.2c4.4,0,7.2,2.3,7.2,6.1c0,2.5-1.3,4.4-3.4,5.3l3.7,5.4
				L623.7,66.8L623.7,66.8z M620.1,53.2H617V59h3.1c2.3,0,3.5-1.1,3.5-2.9C623.6,54.3,622.4,53.2,620.1,53.2z"/>
			<path class="st1" d="M651.7,56.1c0,3.7-2.8,6.1-7.2,6.1h-3.3v4.6h-3.8V50.1h7.2C648.9,50.1,651.7,52.4,651.7,56.1z M647.8,56.1
				c0-1.8-1.2-2.9-3.5-2.9h-3.1V59h3.1C646.6,59,647.8,58,647.8,56.1z"/>
			<path class="st1" d="M653.6,58.4c0-5,3.8-8.7,9.1-8.7c5.2,0,9.1,3.7,9.1,8.7s-3.9,8.7-9.1,8.7C657.4,67.1,653.6,63.4,653.6,58.4z
				 M667.9,58.4c0-3.2-2.2-5.4-5.2-5.4s-5.2,2.2-5.2,5.4s2.2,5.4,5.2,5.4S667.9,61.6,667.9,58.4z"/>
			<path class="st1" d="M673.6,58.4c0-5.1,3.8-8.7,9-8.7c2.9,0,5.3,1.1,6.8,3L687,55c-1.1-1.3-2.5-2-4.2-2c-3.1,0-5.3,2.2-5.3,5.4
				s2.2,5.4,5.3,5.4c1.7,0,3.1-0.7,4.2-2l2.5,2.3c-1.6,1.9-4,3-6.9,3C677.4,67.1,673.6,63.5,673.6,58.4z"/>
			<path class="st1" d="M702.6,63.2h-7.7l-1.5,3.6h-3.9l7.4-16.8h3.8l7.4,16.8h-4L702.6,63.2z M701.4,60.3l-2.6-6.4l-2.6,6.4H701.4z
				"/>
			<path class="st1" d="M708.6,65.2l1.3-2.9c1.4,1,3.5,1.7,5.5,1.7c2.3,0,3.2-0.8,3.2-1.8c0-3.1-9.7-1-9.7-7.2c0-2.9,2.3-5.2,7-5.2
				c2.1,0,4.2,0.5,5.8,1.5l-1.2,2.9c-1.5-0.9-3.1-1.3-4.6-1.3c-2.3,0-3.2,0.9-3.2,1.9c0,3.1,9.7,1,9.7,7.1c0,2.8-2.3,5.2-7,5.2
				C712.7,67.1,710,66.3,708.6,65.2z"/>
			<path class="st1" d="M746.9,50.1v16.8h-3.8V60h-7.5v6.9h-3.8V50.1h3.8v6.6h7.5v-6.6H746.9z"/>
			<path class="st1" d="M749.8,58.4c0-5,3.8-8.7,9.1-8.7c5.2,0,9.1,3.7,9.1,8.7s-3.9,8.7-9.1,8.7S749.8,63.4,749.8,58.4z
				 M764.1,58.4c0-3.2-2.2-5.4-5.2-5.4s-5.2,2.2-5.2,5.4s2.2,5.4,5.2,5.4S764.1,61.6,764.1,58.4z"/>
			<path class="st1" d="M781.4,66.8l-3.2-4.7H778h-3.3v4.7h-3.8V50.1h7.2c4.4,0,7.2,2.3,7.2,6.1c0,2.5-1.3,4.4-3.4,5.3l3.7,5.4
				L781.4,66.8L781.4,66.8z M777.8,53.2h-3.1V59h3.1c2.3,0,3.5-1.1,3.5-2.9C781.4,54.3,780.2,53.2,777.8,53.2z"/>
			<path class="st1" d="M799.2,63.2h-7.7l-1.5,3.6h-3.9l7.4-16.8h3.8l7.4,16.8h-4L799.2,63.2z M798,60.3l-2.6-6.4l-2.6,6.4H798z"/>
			<path class="st1" d="M805.2,65.2l1.3-2.9c1.4,1,3.5,1.7,5.5,1.7c2.3,0,3.2-0.8,3.2-1.8c0-3.1-9.7-1-9.7-7.2c0-2.9,2.3-5.2,7-5.2
				c2.1,0,4.2,0.5,5.8,1.5l-1.2,2.9c-1.5-0.9-3.1-1.3-4.6-1.3c-2.3,0-3.2,0.9-3.2,1.9c0,3.1,9.7,1,9.7,7.1c0,2.8-2.3,5.2-7,5.2
				C809.3,67.1,806.6,66.3,805.2,65.2z"/>
			<path class="st1" d="M820.8,64.8c0-1.2,0.9-2.1,2.3-2.1s2.3,0.9,2.3,2.1s-0.9,2.2-2.3,2.2S820.8,66,820.8,64.8z M820.9,50.1h4.4
				L824.5,61h-2.9L820.9,50.1z"/>
		</g>
	</g>
</g>
</svg>
