<svg width="48" height="11" viewBox="0 0 48 11" fill="none" xmlns="http://www.w3.org/2000/svg">
<path fill-rule="evenodd" clip-rule="evenodd" d="M42.6499 2.18973C42.2484 2.18973 41.8656 2.26796 41.4994 2.42524C41.1337 2.58252 40.8163 2.79847 40.5464 3.07704C40.277 3.35414 40.063 3.67839 39.903 4.04949C39.7443 4.42026 39.6653 4.82505 39.6653 5.266C39.6653 5.67884 39.7443 6.07542 39.903 6.45259C40.063 6.82978 40.277 7.16094 40.5464 7.44624C40.8163 7.73024 41.1337 7.95589 41.4994 8.11843C41.8656 8.28262 42.2484 8.36577 42.6499 8.36577C43.0512 8.36577 43.4336 8.28261 43.8003 8.11843C44.1667 7.95589 44.4849 7.73024 44.7541 7.44624C45.0234 7.16061 45.2367 6.82977 45.3962 6.45259C45.5547 6.07542 45.6344 5.67884 45.6344 5.266C45.5924 4.42716 45.3039 3.71833 44.7648 3.13982C44.2259 2.5646 43.5274 2.2479 42.6707 2.18972L42.6499 2.18973ZM42.6707 0.0224609C43.3474 0.0224609 43.9869 0.164292 44.5878 0.44648C45.1909 0.72768 45.7176 1.1065 46.1739 1.58509C46.6291 2.06005 46.9919 2.61653 47.2622 3.25306C47.5311 3.88893 47.6659 4.56719 47.6659 5.28868C47.6659 6.01214 47.5346 6.68877 47.273 7.31625C47.0095 7.94406 46.653 8.49742 46.2055 8.97321C45.7554 9.45196 45.2264 9.82683 44.6198 10.1008C44.0108 10.3764 43.3534 10.5127 42.6499 10.5127C41.9592 10.5127 41.3092 10.3815 40.7018 10.121C40.0932 9.86183 39.5617 9.4983 39.1054 9.02826C38.6489 8.55871 38.29 8.00503 38.027 7.37113C37.7646 6.73477 37.6343 6.04156 37.6343 5.28867C37.6343 4.56719 37.7608 3.89204 38.0182 3.26423C38.2714 2.63511 38.6288 2.08602 39.0841 1.61582C39.5396 1.14726 40.0758 0.772382 40.6908 0.490033C41.3057 0.207684 41.9652 0.0533591 42.6707 0.0224609Z" fill="white"/>
<path fill-rule="evenodd" clip-rule="evenodd" d="M15.1037 6.00712C15.1037 7.32125 14.0664 8.33349 12.788 8.33349C12.0462 8.33349 11.3856 8.02467 10.9623 7.46802C10.8428 7.32438 10.7441 7.16397 10.6567 6.96182C10.6312 6.90282 10.6147 6.83609 10.595 6.77085C10.5857 6.74357 10.5766 6.71579 10.5691 6.6872C10.5639 6.67043 10.5593 6.6517 10.5545 6.63296C10.5012 6.4341 10.4713 6.22488 10.4713 6.00712C10.4713 5.97211 10.4748 5.93842 10.4751 5.90473C10.473 5.82009 10.4713 5.73446 10.4713 5.65327V1.13744C10.4713 0.847524 10.3646 0.593441 10.1538 0.376499C9.94112 0.159391 9.70076 0.0417179 9.43383 0.0280762C9.13802 0.0417179 8.88603 0.154624 8.68202 0.364992C8.47818 0.57684 8.37559 0.826321 8.37559 1.11492V5.82567C8.36264 6.67043 8.56549 7.36366 8.7793 7.83698C8.79523 7.86985 8.81416 7.90141 8.82827 7.93461C8.87906 8.04045 8.93019 8.14514 8.98746 8.24703C9.01651 8.29946 9.04722 8.35074 9.0781 8.40317C9.11263 8.46168 9.14898 8.51558 9.18583 8.57228C9.48795 9.018 9.90792 9.40258 10.3432 9.70942C10.3619 9.7219 10.3799 9.73505 10.398 9.74787C10.7183 9.96482 11.0668 10.138 11.4368 10.2629C11.7301 10.3555 12.0704 10.4222 12.4787 10.4731C12.5314 10.4776 12.5828 10.4804 12.6353 10.4814C12.6849 10.4835 12.7355 10.4891 12.7862 10.4891C12.8048 10.4891 12.8227 10.4876 12.8408 10.4866C12.9671 10.4858 13.0913 10.481 13.2153 10.4679C13.3552 10.4526 13.4917 10.4342 13.6231 10.4072C13.6303 10.4051 13.6371 10.4043 13.6434 10.4035C13.9533 10.3385 14.2403 10.2442 14.4975 10.1334C14.9377 9.94049 15.3399 9.6726 15.6918 9.34752C16.0192 9.01718 16.3095 8.67385 16.5462 8.27267L16.5598 8.25098C16.6051 8.17291 16.6458 8.08728 16.6873 8.00396C16.7202 7.93937 16.7564 7.88201 16.7861 7.81446C17.0684 7.18402 17.209 6.52054 17.209 5.82567V1.11476C17.209 0.826321 17.106 0.57684 16.9026 0.364992C16.6986 0.154624 16.4468 0.0417179 16.1511 0.0280762C15.882 0.0417179 15.6427 0.159391 15.4307 0.376499C15.2192 0.593441 15.1128 0.847524 15.1128 1.13744V5.65327" fill="white"/>
<path fill-rule="evenodd" clip-rule="evenodd" d="M29.2495 3.5496C29.2495 1.51809 28.0814 0.00181127 26.1447 0.00181127C25.3188 0.00181127 24.3511 0.53348 23.9288 1.10952L23.5725 1.6333L23.197 1.07007C22.72 0.550405 21.9876 0 21.0777 0C18.9813 0 17.8936 1.56903 17.8936 3.5496V9.28174C17.8936 9.94965 18.3125 10.493 18.9513 10.493C19.5907 10.493 20.0346 9.94965 20.0346 9.28174C20.0346 9.26415 20.0333 9.24739 20.0333 9.22931V3.31359C20.0333 2.64469 20.5625 2.14327 21.21 2.14327C21.848 2.14327 22.4593 2.64469 22.4593 3.31359V8.16088L22.4608 8.15973V9.22898H22.4643C22.4622 9.24739 22.4608 9.26415 22.4608 9.28173C22.4608 9.94964 22.9598 10.493 23.5732 10.493C24.1866 10.493 24.6849 9.94964 24.6849 9.28173C24.6849 9.26333 24.6826 9.24705 24.6826 9.22618V8.1714V5.73099V3.32904C24.6826 2.65159 25.2501 2.14326 25.8968 2.14326C26.5457 2.14326 27.103 2.64189 27.103 3.32904V9.22898H27.105C27.1042 9.24739 27.103 9.26415 27.103 9.28173C27.103 9.94964 27.5613 10.493 28.1988 10.493C28.8382 10.493 29.2513 9.94964 29.2513 9.28173C29.2513 9.26333 29.2495 9.24705 29.2495 9.22618" fill="white"/>
<path fill-rule="evenodd" clip-rule="evenodd" d="M37.5117 7.67868C37.5117 6.4934 36.7534 5.48002 35.6799 5.06011L35.7101 5.04384C36.6321 4.57051 37.1413 3.71623 37.1413 2.66588C37.1413 1.21468 36.0781 0.0341633 34.4678 0.0238087L34.4671 0.0233154H31.0862C30.4914 0.0445179 29.9295 0.561065 29.9307 1.14006C29.9307 1.1473 29.9307 1.15453 29.9295 1.1611L29.9287 9.27089C29.9287 9.27598 29.9299 9.31312 29.9299 9.32069C29.9307 9.90971 30.4659 10.5056 31.0625 10.5056L34.3864 10.4984C34.4497 10.5027 34.5129 10.5056 34.5772 10.5056C34.655 10.5056 34.7324 10.5015 34.8092 10.4958C35.0325 10.4885 35.2461 10.4483 35.4465 10.3799C36.6425 10.0226 37.5117 8.94843 37.5117 7.67868V7.67868ZM33.9946 2.05696C34.6589 2.02968 35.1623 2.49051 35.1623 3.10419C35.1623 3.81796 34.6407 4.22899 33.9984 4.22965L32.0362 4.23277L32.033 2.05975L33.9946 2.05696ZM32.0335 6.32197L34.254 6.31852C34.6933 6.31852 35.2485 6.69389 35.2816 7.3102C35.3141 7.90827 34.8835 8.46755 34.258 8.46755L32.0361 8.47083L32.0335 6.32197Z" fill="white"/>
<path fill-rule="evenodd" clip-rule="evenodd" d="M7.74467 6.70017V6.48997V5.45836V2.67824V1.65171C7.74467 1.41916 7.76027 1.17395 7.70267 0.94781C7.62399 0.639491 7.42827 0.381956 7.17014 0.211199C6.96663 0.0770902 6.73373 0.0284424 6.49536 0.0284424H5.79899H3.33043H3.10932C2.84256 0.0284424 2.58294 0.132805 2.38955 0.323119C1.90882 0.795951 1.98767 1.63561 2.54675 2.00375C2.83592 2.19439 3.15962 2.17368 3.48514 2.17368H4.76682H5.66421C5.6823 2.17368 5.67267 2.59343 5.67267 2.62761V5.26147V6.34567C5.67267 6.4571 5.67549 6.5705 5.67483 6.68308L5.674 6.6839V6.69935C5.674 7.72851 4.8631 8.56422 3.86893 8.56422C2.89336 8.56422 2.09922 7.75841 2.0715 6.75506C2.0715 6.74422 2.07299 6.73271 2.07299 6.72104C2.07299 6.70494 2.0715 6.68933 2.0705 6.67338V6.66812L2.07 6.66763C2.04261 6.10063 1.59127 5.64834 1.03633 5.64834C0.464466 5.64834 0 6.12873 0 6.72104C0 6.77676 0.00498001 6.83017 0.0134444 6.88292C0.138939 9.07648 1.75494 10.5149 3.96155 10.5149C7.82882 10.5149 7.75529 6.25692 7.74467 6.70017" fill="white"/>
</svg>
