<svg width="19" height="26" viewBox="0 0 19 26" fill="none" xmlns="http://www.w3.org/2000/svg">
<path fill-rule="evenodd" clip-rule="evenodd" d="M18.75 9.84456C18.75 4.71513 14.6201 0.541626 9.54165 0.541626C4.46323 0.541626 0.333313 4.71513 0.333313 9.84456C0.333313 12.2694 1.73004 15.5275 4.33744 19.4914C5.17255 20.7617 6.09424 22.0435 7.06685 23.2956C7.56966 23.9434 8.06403 24.5543 8.34892 24.8863C8.66027 25.2476 9.084 25.4583 9.54165 25.4583C9.99977 25.4583 10.4239 25.248 10.7335 24.8883C11.0269 24.5461 11.5025 23.9578 12.0172 23.2959C12.9953 22.0354 13.9159 20.7555 14.747 19.4912C17.3529 15.5308 18.75 12.2703 18.75 9.84456ZM13.4311 18.6127C12.6235 19.8412 11.727 21.0876 10.7741 22.3157C10.2756 22.9568 9.81618 23.525 9.54201 23.8449C9.2768 23.5358 8.79829 22.9445 8.31013 22.3156C7.36225 21.0954 6.4649 19.8474 5.65339 18.613C3.20388 14.8891 1.91187 11.8753 1.91187 9.84455C1.91187 5.59242 5.33611 2.13205 9.54164 2.13205C13.7472 2.13205 17.1714 5.59242 17.1714 9.84455C17.1714 11.8763 15.8791 14.8922 13.4311 18.6127ZM5.57943 9.82229C5.57943 7.62676 7.35718 5.84304 9.54164 5.84304C11.7266 5.84304 13.5049 7.62729 13.5049 9.82229C13.5049 12.018 11.727 13.8015 9.54164 13.8015C7.35718 13.8015 5.57943 12.0178 5.57943 9.82229ZM9.54165 12.2111C8.22755 12.2111 7.15801 11.138 7.15801 9.82229C7.15801 8.5066 8.22755 7.43347 9.54165 7.43347C10.8563 7.43347 11.9263 8.50713 11.9263 9.82229C11.9263 11.1381 10.8567 12.2111 9.54165 12.2111Z" fill="white"/>
</svg>
