<svg width="84" height="12" viewBox="0 0 84 12" fill="none" xmlns="http://www.w3.org/2000/svg">
<path fill-rule="evenodd" clip-rule="evenodd" d="M9.16879 1.52979C8.97218 2.21635 8.74533 2.888 8.51848 3.52979C8.26139 3.45516 7.97404 3.32083 7.6262 3.2462C6.85491 3.05217 5.37282 2.97755 4.72252 3.35068C4.37468 3.54471 4.17808 4.08203 4.48054 4.47008C4.75276 4.81337 5.26696 4.97755 5.66017 5.1268C6.9759 5.63426 8.30676 6.20143 8.30676 7.99247C8.30676 10.3507 6.37096 11.3059 4.13271 11.4701C2.66574 11.5746 1.35001 11.3358 0.140137 10.9626C0.321617 10.3059 0.563591 9.57456 0.775318 8.91785C1.51636 9.30591 2.74136 9.54471 3.92098 9.44023C4.66202 9.38053 5.46356 9.0671 5.46356 8.30591C5.46356 7.58949 4.66202 7.30591 4.10246 7.09695C2.86234 6.60441 1.6071 6.15665 1.48612 4.60441C1.47099 4.48501 1.47099 4.38053 1.48612 4.2462C1.63735 2.20143 3.10432 1.29098 5.22159 1.0671C5.52406 1.03725 5.87189 1.0671 6.18948 1.0671C7.33886 1.08203 8.41262 1.14173 9.16879 1.52979Z" fill="white"/>
<path fill-rule="evenodd" clip-rule="evenodd" d="M32.0503 1.44031H32.0806C31.9445 2.24628 31.7479 2.99255 31.5815 3.76867C32.1411 3.81344 32.8065 3.75374 33.3812 3.79852C33.2904 4.42538 33.1695 5.00747 33.0636 5.61941C32.4587 5.64926 31.7932 5.61941 31.1732 5.63434C30.9614 6.39553 30.8102 7.29105 30.6287 8.11195C30.5682 8.39553 30.4775 8.69404 30.4775 8.97762C30.4775 9.42538 30.7497 9.75374 31.1732 9.79851C31.5664 9.84329 31.8386 9.67911 32.1864 9.58956C32.1108 10.1866 32.005 10.7537 31.8991 11.3358C31.1883 11.4403 30.4321 11.5448 29.7818 11.4702C28.451 11.306 27.6343 10.3358 27.8612 8.69404C28.0124 7.64926 28.33 6.70896 28.4963 5.64926C28.0729 5.60449 27.5436 5.66419 27.1201 5.61941C27.2109 5.05225 27.3167 4.38061 27.4528 3.79852C27.9217 3.76867 28.451 3.79852 28.9349 3.78359C29.0862 3.27613 29.1769 2.69404 29.313 2.17165C30.2053 1.93284 31.1278 1.69404 32.0503 1.44031Z" fill="white"/>
<path fill-rule="evenodd" clip-rule="evenodd" d="M15.9142 11.306C15.3092 11.306 14.4623 11.306 13.7515 11.306C13.7515 10.9926 13.8271 10.6493 13.8423 10.306C13.4037 10.903 12.7231 11.3508 11.8157 11.4553C10.7874 11.5747 9.69847 11.3359 9.1994 10.7239C8.88181 10.3359 8.71545 9.7687 8.7457 9.18661C8.77595 8.54482 9.04817 8.0075 9.42625 7.61944C10.4093 6.63437 12.3602 6.35079 14.3565 6.57467C14.5077 5.51497 13.5398 5.27616 12.4509 5.36571C11.6796 5.42541 10.9991 5.72392 10.5454 5.91795C10.5907 5.30601 10.7117 4.63437 10.8025 4.02243C11.725 3.72392 12.7685 3.52989 14.054 3.60452C15.5361 3.67915 16.8065 4.42541 16.8972 5.8881C16.9577 6.81347 16.6855 7.75377 16.4737 8.64929C16.2318 9.52989 16.0352 10.4254 15.9142 11.306ZM13.2071 7.96273C12.3904 7.96273 11.2713 8.21646 11.2713 8.99258C11.2713 9.60452 11.9216 9.79855 12.5265 9.709C13.4037 9.57467 13.9633 8.7687 14.0842 7.99258C13.812 7.93288 13.4339 7.96273 13.2071 7.96273Z" fill="white"/>
<path fill-rule="evenodd" clip-rule="evenodd" d="M25.5929 11.3062C24.7157 11.3211 23.7932 11.3062 22.8556 11.3062C23.0824 10.142 23.3093 9.00767 23.5664 7.82857C23.642 7.44051 23.7781 7.0226 23.763 6.63454C23.7327 6.12707 23.4 5.84349 22.8707 5.79872C22.3262 5.75394 21.8423 6.00767 21.5549 6.27633C21.2979 6.53006 21.0861 6.91812 20.95 7.30618C20.8744 7.51513 20.8593 7.75394 20.7988 7.97782C20.5568 9.06737 20.2997 10.2763 20.0729 11.3062C19.3469 11.3062 18.3337 11.3062 17.4263 11.3062C17.9102 8.76887 18.5454 6.39573 18.9386 3.78379C19.7553 3.79872 20.6022 3.76887 21.3886 3.79872C21.3583 4.15693 21.2676 4.57484 21.2071 4.94797C21.4037 4.82857 21.5247 4.64946 21.6911 4.50021C22.296 3.9629 23.1731 3.51513 24.4284 3.61961C25.5929 3.70916 26.3642 4.61961 26.4852 5.76886C26.5608 6.55991 26.4095 7.24648 26.2734 7.91812C26.0466 9.0226 25.8349 10.2166 25.5929 11.3062Z" fill="white"/>
<path fill-rule="evenodd" clip-rule="evenodd" d="M39.8389 11.3061C39.1735 11.3061 38.3719 11.3061 37.6611 11.3061C37.6914 10.9628 37.7367 10.6494 37.767 10.2912C37.3284 10.9031 36.663 11.3509 35.7253 11.4553C33.9105 11.6792 32.4889 10.8882 32.6704 9.00758C32.746 8.24638 33.1997 7.66429 33.7895 7.27624C34.5155 6.81355 35.3775 6.57474 36.4361 6.51504C37.0411 6.48519 37.6611 6.54489 38.2358 6.58967C38.4475 5.87325 37.8426 5.45534 37.1923 5.38071C36.0732 5.24638 35.1355 5.63444 34.4247 5.93295C34.5003 5.29116 34.6062 4.67922 34.6818 4.05235C35.7102 3.67922 37.4645 3.41056 38.7803 3.73892C40.0052 4.05235 40.9126 4.87325 40.7917 6.44041C40.7614 6.85832 40.6556 7.27623 40.5648 7.67922C40.3077 8.85832 39.9901 10.0822 39.8389 11.3061ZM35.2868 8.60459C35.1809 8.75385 35.1355 9.00758 35.2111 9.21653C35.3775 9.66429 35.9219 9.76877 36.421 9.69415C37.2982 9.55982 37.8124 8.82847 37.9938 7.99265C36.9806 7.87325 35.6951 7.9628 35.2868 8.60459Z" fill="white"/>
<path fill-rule="evenodd" clip-rule="evenodd" d="M63.4772 0.5H66.0482C65.776 1.87313 65.4282 3.27612 65.1257 4.64925C65.6399 4.18657 66.2751 3.69403 67.1976 3.6194C69.1939 3.45522 70.2828 4.69403 70.4189 6.39552C70.434 6.6194 70.434 6.88806 70.4189 7.12687C70.2979 9.5597 68.8914 11.4851 66.4112 11.5C65.0198 11.5 64.2334 10.8881 63.7646 9.93284C63.6285 10.3806 63.5226 10.8731 63.3865 11.306H60.9365C61.6776 8.75373 62.1918 5.96269 62.8269 3.24627C62.9328 2.79851 63.0387 2.33582 63.1445 1.88806C63.2353 1.4403 63.3411 0.962686 63.4621 0.529851C63.447 0.514925 63.4621 0.5 63.4772 0.5ZM65.035 6.39552C64.793 6.72388 64.5208 7.21642 64.4905 7.78358C64.43 8.72388 64.8837 9.5 65.7911 9.47015C66.9103 9.42537 67.6815 8.36567 67.6815 7.14179C67.6815 6.20149 67.1976 5.52985 66.2448 5.64925C65.6701 5.72388 65.3223 6.02239 65.035 6.39552Z" fill="white"/>
<path fill-rule="evenodd" clip-rule="evenodd" d="M81.2621 0.5C82.1393 0.514925 83.0618 0.485075 83.9238 0.514925C83.1677 4.12687 82.4266 7.7388 81.6402 11.3209C80.7479 11.306 79.8254 11.3358 78.9634 11.306C79.7195 7.70895 80.4757 4.12687 81.2319 0.544776C81.2319 0.514926 81.247 0.5 81.2621 0.5Z" fill="white"/>
<path fill-rule="evenodd" clip-rule="evenodd" d="M44.0133 1.24634H46.7506C46.0701 4.61947 45.3593 7.97768 44.6333 11.321C43.7259 11.306 42.7883 11.3359 41.9111 11.306C41.9414 10.8732 42.0472 10.4553 42.138 10.0374C42.7278 7.14186 43.3932 4.20156 43.983 1.29111C43.983 1.26126 43.9982 1.24634 44.0133 1.24634Z" fill="white"/>
<path fill-rule="evenodd" clip-rule="evenodd" d="M52.8304 4.06699C52.6792 4.66401 52.4674 5.21625 52.2859 5.79834C51.6961 5.55953 50.6677 5.32073 49.7906 5.41028C49.4428 5.44013 49.0949 5.58938 48.9739 5.85804C48.8983 6.32073 49.3066 6.4252 49.6545 6.57446C50.4409 6.90281 51.4239 7.15655 51.923 7.75356C52.1045 7.97744 52.2406 8.27595 52.2406 8.67893C52.2557 9.39535 51.9835 9.97744 51.6356 10.3804C50.8039 11.3506 49.231 11.5894 47.5372 11.47C46.7962 11.4103 46.1005 11.2909 45.4502 11.0819C45.6317 10.4849 45.798 9.88789 45.9795 9.29087C46.4635 9.49983 47.2045 9.67893 47.9607 9.72371C48.0514 9.72371 48.1573 9.72371 48.2631 9.72371C48.7925 9.69386 49.3974 9.60431 49.5637 9.21625C49.5637 9.00729 49.5789 8.93267 49.473 8.79834C49.231 8.45505 48.5959 8.3655 48.1422 8.1864C47.2347 7.84311 46.3425 7.29087 46.4332 5.96252C46.4635 5.51475 46.6298 5.1267 46.8718 4.82819C47.4465 4.1267 48.5051 3.73864 49.7301 3.63416C50.9853 3.51476 51.9079 3.79834 52.8304 4.06699Z" fill="white"/>
<path fill-rule="evenodd" clip-rule="evenodd" d="M59.9081 11.306C59.1973 11.2911 58.4411 11.321 57.7455 11.2911C57.7757 10.9478 57.806 10.6045 57.8664 10.2911C57.322 10.9926 56.5205 11.4851 55.2955 11.4851C53.9041 11.4851 52.9513 10.8881 52.7699 9.75379C52.7245 9.45528 52.7245 9.14185 52.7699 8.85827C53.0118 7.38065 54.4939 6.69409 56.097 6.52991C56.8229 6.45528 57.6245 6.51498 58.3353 6.57468C58.5167 5.50006 57.4884 5.27618 56.4448 5.36573C55.6584 5.42543 54.9628 5.73886 54.5242 5.91797C54.5998 5.27618 54.6905 4.63439 54.7964 4.02245C55.7189 3.72394 56.7927 3.51498 58.0782 3.60453C59.8779 3.72394 61.0877 4.72394 60.876 6.63439C60.7853 7.41051 60.5433 8.18662 60.3769 8.94782C60.1954 9.73886 60.0593 10.5299 59.9081 11.306ZM55.4618 8.50006C55.3106 8.66424 55.1896 8.97767 55.3106 9.27618C55.5223 9.76871 56.2936 9.82842 56.8381 9.61946C57.5337 9.36573 57.9572 8.69409 58.0782 7.99259C57.1405 7.90304 55.976 7.93289 55.4618 8.50006Z" fill="white"/>
<path fill-rule="evenodd" clip-rule="evenodd" d="M78.6155 8.33585H73.2467C73.2618 10.0821 75.7875 9.85824 77.1032 9.41048C77.3149 9.33585 77.4964 9.26123 77.6627 9.21645C77.5569 9.82839 77.451 10.4553 77.33 11.0523C76.0294 11.4702 74.2297 11.6791 72.9443 11.2015C71.6436 10.7239 70.6153 9.58958 70.7362 7.72391C70.8119 6.54481 71.3261 5.60451 71.9764 4.91794C72.5057 4.35078 73.0804 4.02242 73.8668 3.79854C74.3659 3.66421 75.0615 3.57466 75.7572 3.61944C77.572 3.75376 78.6306 4.78361 78.797 6.57466C78.8575 7.17167 78.7516 7.75376 78.6155 8.33585ZM75.2884 5.38063C74.26 5.39555 73.6551 6.03735 73.4433 6.82839H76.6041C76.6192 5.96272 76.1807 5.3657 75.2884 5.38063Z" fill="white"/>
</svg>
