<svg width="32" height="14" viewBox="0 0 32 14" fill="none" xmlns="http://www.w3.org/2000/svg">
<path d="M9.63617 8.73336C9.63617 6.76055 8.27571 6.06867 6.59564 5.7674C5.73537 5.63131 5.16565 5.48067 5.17915 4.71295C5.19367 4.05015 5.69282 3.74888 6.59564 3.74888C7.16535 3.74888 7.72053 3.94419 7.91459 4.60698C8.02562 4.95293 8.1927 5.07344 8.51128 4.93838L9.80221 4.47193C10.1633 4.35142 10.2329 4.17066 10.1073 3.73434C9.66419 2.21343 8.56731 1.4 6.69318 1.4C4.27736 1.4 2.66785 2.5895 2.66785 4.86358C2.66785 6.9569 4.15284 7.82955 5.80489 8.07057C6.66517 8.19107 7.11035 8.47676 7.11035 9.10943C7.11035 9.78677 6.52715 10.194 5.58282 10.194C4.79104 10.194 4.34689 9.83248 4.15284 9.27565C3.98576 8.85387 3.83322 8.76349 3.48662 8.86945L2.19569 9.33591C1.8906 9.44083 1.77956 9.63718 1.8906 10.1036C2.27974 11.7295 3.50115 12.5429 5.40226 12.5429C7.9426 12.5429 9.62268 11.2931 9.63617 8.73336Z" fill="white"/>
<path d="M18.4652 4.7576C18.4652 2.87518 17.4513 1.62542 15.2866 1.62542H12.3021C11.858 1.62542 11.7054 1.7158 11.6359 2.15213L10.0949 11.6235C10.0254 12.0598 10.0814 12.3164 10.5525 12.3164H11.8995C12.3021 12.3164 12.4547 12.2115 12.5377 11.7741L12.9953 8.95878H14.5229C16.9241 8.95878 18.4652 7.28724 18.4652 4.7576ZM13.7871 4.03455H14.9535C15.7173 4.03455 16.0089 4.41062 16.0089 5.05888C16.0089 6.06762 15.3977 6.54965 14.5239 6.54965H13.3855L13.7871 4.03455Z" fill="white"/>
<path d="M18.7287 12.3164H20.1172C20.4503 12.3164 20.6589 12.2115 20.7284 11.8042L22.2559 2.28822C22.339 1.82177 22.2009 1.62542 21.8118 1.62542H20.4513C20.1182 1.62542 19.8961 1.68567 19.8266 2.13758L18.2856 11.6391C18.215 12.1211 18.3261 12.3164 18.7287 12.3164Z" fill="white"/>
<path d="M29.3945 10.2906C29.7255 9.72547 29.957 9.05228 30.0836 8.28144L30.4727 5.8266C30.8888 3.28241 29.5709 1.62542 27.0576 1.62542H24.1426C23.768 1.62542 23.5874 1.7158 23.5044 2.16771L21.9769 11.6235C21.9073 12.0899 21.9903 12.3164 22.4075 12.3164H25.5591C26.7867 12.3164 27.7829 11.9715 28.5342 11.3305C28.5415 11.3108 28.5488 11.291 28.5581 11.2703C28.7708 10.808 29.0438 10.487 29.3945 10.2906ZM28.0424 5.67596L27.6397 8.08509C27.4311 9.39511 26.849 9.90727 25.6961 9.90727H24.7248L25.6691 4.03455H26.7244C27.9313 4.03559 28.2094 4.60697 28.0424 5.67596Z" fill="white"/>
<path d="M29.3945 10.2906C29.0437 10.4869 28.7708 10.8079 28.556 11.2713C28.5467 11.292 28.5394 11.3118 28.5321 11.3315C28.8704 11.0427 29.1579 10.6947 29.3945 10.2906Z" fill="white"/>
</svg>
