<svg width="24" height="24" viewBox="0 0 24 24" fill="none" xmlns="http://www.w3.org/2000/svg">
<path d="M19 19.5V6L17 6C17 12.6274 11.6274 18 5 18V19.5L5.5 20H18.5L19 19.5Z" fill="#E1EAF0"/>
<path fill-rule="evenodd" clip-rule="evenodd" d="M4.5 3C4.5 2.72386 4.72386 2.5 5 2.5H16C16.1326 2.5 16.2598 2.55268 16.3536 2.64645L19.3536 5.64645C19.4473 5.74021 19.5 5.86739 19.5 6V20C19.5 20.2761 19.2761 20.5 19 20.5H5C4.72386 20.5 4.5 20.2761 4.5 20V3ZM5.5 3.5V19.5H18.5V6.20711L15.7929 3.5H5.5Z" fill="#1A1A1A"/>
<path d="M16 17C16 19.2091 14.2091 21 12 21C9.79086 21 8 19.2091 8 17C8 14.7909 9.79086 13 12 13C14.2091 13 16 14.7909 16 17Z" fill="#90C0FF"/>
<path fill-rule="evenodd" clip-rule="evenodd" d="M12 13.5C10.067 13.5 8.5 15.067 8.5 17C8.5 18.933 10.067 20.5 12 20.5C13.933 20.5 15.5 18.933 15.5 17C15.5 15.067 13.933 13.5 12 13.5ZM7.5 17C7.5 14.5147 9.51472 12.5 12 12.5C14.4853 12.5 16.5 14.5147 16.5 17C16.5 19.4853 14.4853 21.5 12 21.5C9.51472 21.5 7.5 19.4853 7.5 17Z" fill="#1A1A1A"/>
<path fill-rule="evenodd" clip-rule="evenodd" d="M12 15C12.2761 15 12.5 15.2239 12.5 15.5L12.5 17.2929L12.6464 17.1465C12.8417 16.9512 13.1583 16.9512 13.3535 17.1464C13.5488 17.3417 13.5488 17.6583 13.3536 17.8535L12.3536 18.8535C12.2598 18.9473 12.1327 19 12 19C11.8674 19 11.7403 18.9473 11.6465 18.8536L10.6465 17.8536C10.4512 17.6583 10.4512 17.3417 10.6464 17.1465C10.8417 16.9512 11.1583 16.9512 11.3535 17.1464L11.5 17.2929L11.5 15.5C11.5 15.2239 11.7239 15 12 15Z" fill="#1A1A1A"/>
<path fill-rule="evenodd" clip-rule="evenodd" d="M7.5 7C7.5 6.72386 7.72386 6.5 8 6.5L13.5 6.5C13.7761 6.5 14 6.72386 14 7C14 7.27614 13.7761 7.5 13.5 7.5H8C7.72386 7.5 7.5 7.27614 7.5 7Z" fill="#1A1A1A"/>
<path fill-rule="evenodd" clip-rule="evenodd" d="M7.5 9C7.5 8.72386 7.72386 8.5 8 8.5L13.5 8.5C13.7761 8.5 14 8.72386 14 9C14 9.27614 13.7761 9.5 13.5 9.5H8C7.72386 9.5 7.5 9.27614 7.5 9Z" fill="#1A1A1A"/>
<path fill-rule="evenodd" clip-rule="evenodd" d="M7.5 11C7.5 10.7239 7.72386 10.5 8 10.5H10C10.2761 10.5 10.5 10.7239 10.5 11C10.5 11.2761 10.2761 11.5 10 11.5H8C7.72386 11.5 7.5 11.2761 7.5 11Z" fill="#1A1A1A"/>
<path fill-rule="evenodd" clip-rule="evenodd" d="M15.5 6V3H16.5V5.5H19V6.5H16C15.7239 6.5 15.5 6.27614 15.5 6Z" fill="#1A1A1A"/>
</svg>
