<svg width="24" height="24" viewBox="0 0 24 24" fill="none" xmlns="http://www.w3.org/2000/svg">
<path fill-rule="evenodd" clip-rule="evenodd" d="M3.37885 5.51505C3.64675 5.44807 3.91822 5.61095 3.98519 5.87885L4.36392 7.39378L5.87885 7.01505C6.14675 6.94807 6.41822 7.11095 6.48519 7.37885C6.55216 7.64675 6.38928 7.91822 6.12139 7.98519L4.12139 8.48519C3.85349 8.55216 3.58202 8.38928 3.51505 8.12139L3.01505 6.12139C2.94807 5.85349 3.11095 5.58202 3.37885 5.51505Z" fill="#1A1A1A"/>
<path fill-rule="evenodd" clip-rule="evenodd" d="M9.14187 3.99493C11.0901 3.29932 13.2252 3.33811 15.1469 4.10401C17.0687 4.86992 18.6451 6.31037 19.5808 8.15539C20.5165 10.0004 20.7472 12.1233 20.2297 14.1263C19.7122 16.1293 18.482 17.8747 16.7697 19.0356C15.0574 20.1965 12.9805 20.693 10.9283 20.4322C10.6543 20.3974 10.4041 20.5912 10.3692 20.8651C10.3344 21.1391 10.5283 21.3894 10.8022 21.4242C13.0959 21.7157 15.4171 21.1607 17.3309 19.8633C19.2446 18.5659 20.6196 16.6151 21.1979 14.3765C21.7763 12.1379 21.5185 9.76517 20.4727 7.70308C19.4269 5.641 17.665 4.03109 15.5172 3.17507C13.3694 2.31906 10.9831 2.27571 8.80562 3.05316C6.62814 3.8306 4.80893 5.37547 3.68894 7.39821C3.55518 7.63979 3.64258 7.94407 3.88417 8.07783C4.12575 8.21159 4.43003 8.12419 4.56379 7.88261C5.56588 6.07278 7.1936 4.69054 9.14187 3.99493Z" fill="#1A1A1A"/>
<path fill-rule="evenodd" clip-rule="evenodd" d="M12.3729 2.50733C12.108 2.49692 11.8436 2.49763 11.5804 2.50926C11.3045 2.52145 11.0907 2.75498 11.1029 3.03085C11.1151 3.30672 11.3486 3.52048 11.6245 3.50829C11.86 3.49788 12.0966 3.49724 12.3336 3.50656C12.5707 3.51587 12.8064 3.53506 13.0404 3.56392C13.3145 3.59772 13.5641 3.40294 13.5979 3.12888C13.6317 2.85481 13.4369 2.60524 13.1628 2.57144C12.9013 2.53919 12.6378 2.51774 12.3729 2.50733ZM10.6032 3.09498C10.5454 2.82497 10.2796 2.65298 10.0095 2.71084C9.49249 2.82164 8.98554 2.97542 8.49407 3.17056C8.23742 3.27246 8.11197 3.56313 8.21387 3.81978C8.31577 4.07643 8.60644 4.20188 8.86309 4.09998C9.30284 3.92537 9.75643 3.78778 10.2191 3.68865C10.4891 3.63079 10.6611 3.36499 10.6032 3.09498ZM14.091 3.23202C14.0121 3.49666 14.1627 3.77513 14.4274 3.85399C14.8808 3.98912 15.3222 4.16188 15.7469 4.37044C15.9948 4.49217 16.2944 4.38991 16.4161 4.14205C16.5378 3.89418 16.4356 3.59457 16.1877 3.47284C15.7131 3.23974 15.2197 3.04666 14.713 2.89564C14.4483 2.81678 14.1699 2.96738 14.091 3.23202ZM7.76275 4.04408C7.61962 3.80793 7.31215 3.73252 7.07599 3.87565C6.85067 4.01221 6.63044 4.15851 6.41596 4.31434C6.19255 4.47665 6.14303 4.78934 6.30534 5.01274C6.46765 5.23615 6.78034 5.28567 7.00374 5.12336C7.19566 4.98392 7.39271 4.85302 7.59431 4.73083C7.83047 4.5877 7.90588 4.28023 7.76275 4.04408ZM16.8482 4.40105C16.687 4.62525 16.7381 4.93769 16.9623 5.0989C17.1537 5.23653 17.3398 5.38249 17.5202 5.53655C17.7006 5.69062 17.8739 5.85167 18.0398 6.01917C18.2341 6.21539 18.5507 6.21694 18.7469 6.02263C18.9431 5.82833 18.9446 5.51175 18.7503 5.31554C18.5649 5.12832 18.3713 4.94832 18.1697 4.77615C17.9681 4.60397 17.76 4.44085 17.5461 4.28702C17.3219 4.1258 17.0095 4.17686 16.8482 4.40105ZM19.0703 6.40893C18.8445 6.56793 18.7904 6.87986 18.9494 7.10563C19.2218 7.49246 19.4615 7.9014 19.6659 8.32811C19.7852 8.57716 20.0838 8.68235 20.3328 8.56305C20.5819 8.44376 20.6871 8.14516 20.5678 7.89612C20.3393 7.41921 20.0715 6.96217 19.767 6.52983C19.608 6.30406 19.2961 6.24993 19.0703 6.40893ZM20.5119 9.03399C20.2464 9.11024 20.0931 9.38721 20.1694 9.65262C20.2345 9.87919 20.2903 10.1091 20.3366 10.3417C20.3829 10.5744 20.4192 10.8082 20.4458 11.0424C20.4769 11.3168 20.7246 11.514 20.999 11.4829C21.2733 11.4518 21.4706 11.2041 21.4394 10.9297C21.4098 10.6679 21.3691 10.4067 21.3174 10.1466C21.2657 9.88663 21.2032 9.62971 21.1305 9.37647C21.0542 9.11107 20.7773 8.95773 20.5119 9.03399ZM2.99991 11.5C2.72377 11.5 2.49991 11.7239 2.49991 12C2.49991 12.2651 2.511 12.5293 2.53296 12.7918C2.55597 13.067 2.79771 13.2714 3.07289 13.2484C3.34807 13.2254 3.5525 12.9837 3.52948 12.7085C3.50984 12.4736 3.49991 12.2372 3.49991 12C3.49991 11.7239 3.27606 11.5 2.99991 11.5ZM21.0138 11.9865C20.7381 11.9716 20.5024 12.183 20.4875 12.4587C20.462 12.9312 20.397 13.4007 20.2934 13.8624C20.2329 14.1318 20.4023 14.3993 20.6717 14.4598C20.9411 14.5203 21.2086 14.3509 21.2691 14.0815C21.3849 13.5655 21.4575 13.0408 21.4861 12.5127C21.501 12.237 21.2895 12.0014 21.0138 11.9865ZM3.15659 13.7452C2.88906 13.8137 2.72764 14.086 2.79605 14.3535C2.92707 14.8658 3.10063 15.3664 3.31491 15.8498C3.42682 16.1022 3.72218 16.2162 3.97464 16.1043C4.22709 15.9924 4.34103 15.697 4.22913 15.4446C4.0374 15.012 3.8821 14.5642 3.76488 14.1058C3.69646 13.8382 3.42413 13.6768 3.15659 13.7452ZM20.5207 14.9404C20.2651 14.836 19.9732 14.9586 19.8688 15.2142C19.7796 15.4325 19.6812 15.6476 19.5735 15.8589C19.4658 16.0703 19.3496 16.2764 19.2255 16.4768C19.08 16.7115 19.1524 17.0197 19.3872 17.1651C19.6219 17.3106 19.9301 17.2382 20.0755 17.0034C20.2143 16.7795 20.3441 16.5491 20.4645 16.3129C20.5848 16.0767 20.6949 15.8363 20.7945 15.5924C20.8989 15.3367 20.7764 15.0449 20.5207 14.9404ZM4.21648 16.5463C3.98612 16.6985 3.92284 17.0087 4.07513 17.2391C4.22044 17.4589 4.37527 17.6732 4.5394 17.8814C4.70353 18.0896 4.87578 18.2902 5.05558 18.4828C5.24401 18.6846 5.56041 18.6955 5.76227 18.5071C5.96413 18.3186 5.97501 18.0023 5.78657 17.8004C5.6257 17.6281 5.47158 17.4486 5.32472 17.2623C5.17786 17.076 5.03932 16.8842 4.90931 16.6876C4.75702 16.4572 4.44683 16.394 4.21648 16.5463ZM19.087 17.5698C18.8797 17.3874 18.5638 17.4076 18.3814 17.6149C18.0688 17.9701 17.7271 18.2986 17.3599 18.597C17.1456 18.7711 17.113 19.086 17.2872 19.3003C17.4613 19.5147 17.7762 19.5472 17.9905 19.3731C18.4009 19.0396 18.7828 18.6725 19.1321 18.2755C19.3145 18.0682 19.2944 17.7522 19.087 17.5698ZM6.13557 18.8454C5.96783 19.0648 6.00967 19.3786 6.22902 19.5463C6.64908 19.8675 7.09524 20.1532 7.56282 20.4001C7.80699 20.5291 8.10948 20.4357 8.23846 20.1916C8.36744 19.9474 8.27406 19.6449 8.02989 19.5159C7.61153 19.2949 7.21232 19.0394 6.83648 18.752C6.61712 18.5842 6.30332 18.6261 6.13557 18.8454ZM16.8711 19.5844C16.7349 19.3441 16.4298 19.2596 16.1896 19.3957C15.9844 19.5119 15.774 19.6199 15.5585 19.7192C15.3431 19.8185 15.1243 19.9085 14.9027 19.989C14.6432 20.0833 14.5092 20.3701 14.6035 20.6297C14.6979 20.8892 14.9847 21.0232 15.2442 20.9289C15.4919 20.8389 15.7364 20.7384 15.9772 20.6274C16.2179 20.5164 16.4532 20.3957 16.6824 20.2658C16.9227 20.1297 17.0072 19.8246 16.8711 19.5844ZM8.70201 20.3889C8.61539 20.6511 8.75773 20.9339 9.01994 21.0205C9.27012 21.1032 9.5244 21.1756 9.78218 21.2375C10.04 21.2994 10.2994 21.3503 10.5599 21.3902C10.8328 21.4321 11.088 21.2448 11.1299 20.9718C11.1717 20.6989 10.9844 20.4437 10.7115 20.4018C10.4784 20.3661 10.2463 20.3205 10.0156 20.2651C9.78496 20.2098 9.55745 20.1449 9.33361 20.071C9.0714 19.9844 8.78862 20.1267 8.70201 20.3889ZM14.1173 20.7617C14.0675 20.4901 13.8068 20.3103 13.5352 20.3602C13.0699 20.4457 12.5982 20.4921 12.1251 20.4991C11.849 20.5032 11.6284 20.7303 11.6325 21.0064C11.6366 21.2825 11.8637 21.503 12.1398 21.499C12.6686 21.4912 13.1958 21.4393 13.7159 21.3438C13.9875 21.2939 14.1672 21.0333 14.1173 20.7617Z" fill="#1A1A1A"/>
<path d="M11 9H9L8 16H14C12.1258 14.7505 11 12.647 11 10.3944V9Z" fill="#E1EAF0"/>
<path fill-rule="evenodd" clip-rule="evenodd" d="M12 7.5C11.4477 7.5 11 7.94772 11 8.5V10C11 10.2761 10.7761 10.5 10.5 10.5C10.2239 10.5 10 10.2761 10 10V8.5C10 7.39543 10.8954 6.5 12 6.5C13.1046 6.5 14 7.39543 14 8.5V10C14 10.2761 13.7761 10.5 13.5 10.5C13.2239 10.5 13 10.2761 13 10V8.5C13 7.94772 12.5523 7.5 12 7.5Z" fill="#1A1A1A"/>
<path fill-rule="evenodd" clip-rule="evenodd" d="M8.3822 8.93775C8.41358 8.68764 8.62624 8.5 8.87831 8.5H15.1217C15.3738 8.5 15.5864 8.68764 15.6178 8.93775L16.355 14.8133C16.4674 15.7088 15.7692 16.5 14.8667 16.5H8C7.85655 16.5 7.72 16.4384 7.62509 16.3308C7.53017 16.2232 7.48603 16.0801 7.50389 15.9378L8.3822 8.93775ZM9.3195 9.5L8.56666 15.5H14.8667C15.1675 15.5 15.4003 15.2363 15.3628 14.9378L14.6805 9.5H9.3195Z" fill="#1A1A1A"/>
<path d="M13.4142 13.4142L14.8284 17.6568L15.8891 15.889L17.6569 14.8284L13.4142 13.4142Z" fill="#90C0FF"/>
<path fill-rule="evenodd" clip-rule="evenodd" d="M13.0607 13.0606C13.1947 12.9267 13.3927 12.8799 13.5724 12.9398L17.815 14.354C18.0003 14.4158 18.1326 14.5797 18.1539 14.7738C18.1753 14.9679 18.0816 15.1566 17.9142 15.2571L16.2536 16.2535L15.2573 17.914C15.1568 18.0815 14.968 18.1751 14.7739 18.1538C14.5798 18.1325 14.4159 18.0002 14.3542 17.8149L12.94 13.5723C12.8801 13.3926 12.9268 13.1945 13.0607 13.0606ZM14.9591 16.4674L15.4604 15.6318C15.5026 15.5614 15.5615 15.5025 15.6319 15.4603L16.4675 14.9589L14.2049 14.2047L14.9591 16.4674Z" fill="#1A1A1A"/>
</svg>
