<svg width="24" height="24" viewBox="0 0 24 24" fill="none" xmlns="http://www.w3.org/2000/svg">
<path d="M5.16699 7L11.667 4L13.8337 5L7.33366 8V10L5.16699 9V7Z" fill="#90C0FF"/>
<path fill-rule="evenodd" clip-rule="evenodd" d="M2.54614 5.79059C2.66186 5.53987 2.95892 5.43042 3.20965 5.54614L9.70965 8.54614C9.96038 8.66186 10.0698 8.95892 9.9541 9.20965C9.83838 9.46038 9.54132 9.56982 9.29059 9.4541L2.79059 6.4541C2.53987 6.33838 2.43042 6.04132 2.54614 5.79059Z" fill="#1A1A1A"/>
<path d="M14.05 6.81825L15.35 6.18188H16V13.8182L9.5 17.0001V15.3455C12.3276 13.6055 14.05 10.5231 14.05 7.20301V6.81825Z" fill="#E1EAF0"/>
<path fill-rule="evenodd" clip-rule="evenodd" d="M3 5.5C3.27614 5.5 3.5 5.72386 3.5 6V14C3.5 14.2761 3.27614 14.5 3 14.5C2.72386 14.5 2.5 14.2761 2.5 14V6C2.5 5.72386 2.72386 5.5 3 5.5ZM16 5.5C16.2761 5.5 16.5 5.72386 16.5 6V14C16.5 14.2761 16.2761 14.5 16 14.5C15.7239 14.5 15.5 14.2761 15.5 14V6C15.5 5.72386 15.7239 5.5 16 5.5ZM9.5 8.5C9.77614 8.5 10 8.72386 10 9V17C10 17.2761 9.77614 17.5 9.5 17.5C9.22386 17.5 9 17.2761 9 17V9C9 8.72386 9.22386 8.5 9.5 8.5Z" fill="#1A1A1A"/>
<path fill-rule="evenodd" clip-rule="evenodd" d="M9.29059 2.54602C9.42354 2.48466 9.5767 2.48466 9.70965 2.54602L16.2097 5.54602C16.3867 5.62775 16.5001 5.80497 16.5001 6C16.5001 6.19503 16.3867 6.37225 16.2097 6.45398L9.70965 9.45398C9.45892 9.5697 9.16186 9.46026 9.04614 9.20953C8.93042 8.9588 9.03987 8.66174 9.29059 8.54602L14.807 6L9.50012 3.55069L3.20965 6.45398C2.95892 6.5697 2.66186 6.46026 2.54614 6.20953C2.43042 5.9588 2.53987 5.66174 2.79059 5.54602L9.29059 2.54602Z" fill="#1A1A1A"/>
<path fill-rule="evenodd" clip-rule="evenodd" d="M2.54614 13.7906C2.66186 13.5399 2.95892 13.4304 3.20965 13.5461L9.50012 16.4494L15.7906 13.5461C16.0413 13.4304 16.3384 13.5399 16.4541 13.7906C16.5698 14.0413 16.4604 14.3384 16.2096 14.4541L9.70965 17.4541C9.5767 17.5155 9.42354 17.5155 9.29059 17.4541L2.79059 14.4541C2.53987 14.3384 2.43042 14.0413 2.54614 13.7906Z" fill="#1A1A1A"/>
<path fill-rule="evenodd" clip-rule="evenodd" d="M18 13C19.6569 13 21 14.3431 21 16C21 17.3542 20.4 19.5 18 21C15.6 19.5 15 17.3542 15 16C15 14.3431 16.3431 13 18 13Z" fill="#90C0FF"/>
<path fill-rule="evenodd" clip-rule="evenodd" d="M14.5 16C14.5 14.067 16.067 12.5 18 12.5C19.933 12.5 21.5 14.067 21.5 16C21.5 17.4955 20.8358 19.8173 18.265 21.424L18 21.5896L17.735 21.424C15.1642 19.8173 14.5 17.4955 14.5 16ZM18 13.5C16.6193 13.5 15.5 14.6193 15.5 16C15.5 17.1633 15.9928 19.0229 18 20.4023C20.0072 19.0229 20.5 17.1633 20.5 16C20.5 14.6193 19.3807 13.5 18 13.5Z" fill="#1A1A1A"/>
<path d="M19 16C19 16.5523 18.5523 17 18 17C17.4477 17 17 16.5523 17 16C17 15.4477 17.4477 15 18 15C18.5523 15 19 15.4477 19 16Z" fill="#1A1A1A"/>
</svg>
