<svg width="24" height="24" viewBox="0 0 24 24" fill="none" xmlns="http://www.w3.org/2000/svg">
<path d="M4 11L5.5 10.5L6 9.5L7 10.5L8 11L9.5 10.5L12 11L14.5 10L16 11L18 10L20 11V13H13.6076C12.554 12.3652 11.3197 12 10 12H4V11Z" fill="#E1EAF0"/>
<path d="M16.8705 17C17.6052 18.1171 18.6857 19 20 19V17H16.8705Z" fill="#E1EAF0"/>
<path fill-rule="evenodd" clip-rule="evenodd" d="M4 10.5C4.27614 10.5 4.5 10.7239 4.5 11V18.5H19.5V11C19.5 10.7239 19.7239 10.5 20 10.5C20.2761 10.5 20.5 10.7239 20.5 11V19C20.5 19.2761 20.2761 19.5 20 19.5H4C3.72386 19.5 3.5 19.2761 3.5 19V11C3.5 10.7239 3.72386 10.5 4 10.5Z" fill="#1A1A1A"/>
<path fill-rule="evenodd" clip-rule="evenodd" d="M5.5 13C5.5 12.7239 5.72386 12.5 6 12.5H11C11.2761 12.5 11.5 12.7239 11.5 13V19C11.5 19.2761 11.2761 19.5 11 19.5H6C5.72386 19.5 5.5 19.2761 5.5 19V13ZM6.5 13.5V18.5H10.5V13.5H6.5Z" fill="#1A1A1A"/>
<path fill-rule="evenodd" clip-rule="evenodd" d="M3.74549 3.84871C3.81141 3.64106 4.0042 3.5 4.22206 3.5H19.7776C19.9955 3.5 20.1883 3.64106 20.2542 3.84871L21.7778 8.64813C22.226 10.0599 21.1722 11.5 19.691 11.5C18.9583 11.5 18.2919 11.1358 17.8911 10.5574C17.4331 11.1394 16.7247 11.5 15.9505 11.5C15.1564 11.5 14.4315 11.1207 13.9751 10.5122C13.5187 11.1207 12.7939 11.5 11.9998 11.5C11.2058 11.5 10.4809 11.1207 10.0245 10.5122C9.56812 11.1207 8.84326 11.5 8.04922 11.5C7.275 11.5 6.56655 11.1394 6.10859 10.5574C5.70776 11.1358 5.04141 11.5 4.30864 11.5C2.82744 11.5 1.77369 10.0599 2.22187 8.64813L3.74549 3.84871ZM4.58792 4.5L3.17499 8.95071C2.93152 9.71766 3.50397 10.5 4.30864 10.5C4.83873 10.5 5.30483 10.1492 5.45157 9.63984L5.59345 9.14731C5.65513 8.93318 5.85107 8.78571 6.07391 8.78571C6.29675 8.78571 6.49269 8.93318 6.55437 9.14731L6.63811 9.438C6.81927 10.0669 7.39475 10.5 8.04922 10.5C8.70369 10.5 9.27916 10.0669 9.46032 9.438L9.54406 9.14731C9.60575 8.93318 9.80169 8.78571 10.0245 8.78571C10.2474 8.78571 10.4433 8.93318 10.505 9.14731L10.5887 9.438C10.7699 10.0669 11.3454 10.5 11.9998 10.5C12.6543 10.5 13.2298 10.0669 13.4109 9.438L13.4947 9.14731C13.5564 8.93318 13.7523 8.78571 13.9751 8.78571C14.198 8.78571 14.3939 8.93318 14.4556 9.14731L14.5393 9.438C14.7205 10.0669 15.296 10.5 15.9505 10.5C16.6049 10.5 17.1804 10.0669 17.3616 9.438L17.4453 9.14731C17.507 8.93318 17.7029 8.78571 17.9258 8.78571C18.1486 8.78571 18.3445 8.93318 18.4062 9.14731L18.5481 9.63984C18.6948 10.1492 19.1609 10.5 19.691 10.5C20.4957 10.5 21.0682 9.71766 20.8247 8.95071L19.4118 4.5H4.58792Z" fill="#1A1A1A"/>
<path d="M16 7C16 9.20914 14.2091 11 12 11C9.79086 11 8 9.20914 8 7C8 4.79086 9.79086 3 12 3C14.2091 3 16 4.79086 16 7Z" fill="#90C0FF"/>
<path fill-rule="evenodd" clip-rule="evenodd" d="M12 3.5C10.067 3.5 8.5 5.067 8.5 7C8.5 8.933 10.067 10.5 12 10.5C13.933 10.5 15.5 8.933 15.5 7C15.5 5.067 13.933 3.5 12 3.5ZM7.5 7C7.5 4.51472 9.51472 2.5 12 2.5C14.4853 2.5 16.5 4.51472 16.5 7C16.5 9.48528 14.4853 11.5 12 11.5C9.51472 11.5 7.5 9.48528 7.5 7Z" fill="#1A1A1A"/>
<path fill-rule="evenodd" clip-rule="evenodd" d="M12 5C12.2761 5 12.5 5.22386 12.5 5.5V6.79283L13.3536 7.64646C13.5488 7.84173 13.5488 8.15831 13.3535 8.35357C13.1583 8.54882 12.8417 8.54881 12.6464 8.35354L11.6464 7.35347C11.5527 7.2597 11.5 7.13253 11.5 6.99993V5.5C11.5 5.22386 11.7239 5 12 5Z" fill="#1A1A1A"/>
<path fill-rule="evenodd" clip-rule="evenodd" d="M12.5 13C12.5 12.7239 12.7239 12.5 13 12.5H20C20.2761 12.5 20.5 12.7239 20.5 13V17C20.5 17.2761 20.2761 17.5 20 17.5H13C12.7239 17.5 12.5 17.2761 12.5 17V13ZM13.5 13.5V16.5H19.5V13.5H13.5Z" fill="#1A1A1A"/>
<path d="M3 19H21V21H3V19Z" fill="#E1EAF0"/>
<path fill-rule="evenodd" clip-rule="evenodd" d="M2.5 19C2.5 18.7239 2.72386 18.5 3 18.5H21C21.2761 18.5 21.5 18.7239 21.5 19V21C21.5 21.2761 21.2761 21.5 21 21.5H3C2.72386 21.5 2.5 21.2761 2.5 21V19ZM3.5 19.5V20.5H20.5V19.5H3.5Z" fill="#1A1A1A"/>
<path d="M10 16C10 16.2761 9.77614 16.5 9.5 16.5C9.22386 16.5 9 16.2761 9 16C9 15.7239 9.22386 15.5 9.5 15.5C9.77614 15.5 10 15.7239 10 16Z" fill="#1A1A1A"/>
<path fill-rule="evenodd" clip-rule="evenodd" d="M16 17V13H17V17H16Z" fill="#1A1A1A"/>
</svg>
